<?xml version="1.0" encoding="UTF-8" standalone="no"?>
<svg
   width="32"
   height="32"
   version="1.1"
   id="svg7"
   sodipodi:docname="x-osu-beatmap.svg"
   inkscape:version="1.4.2 (ebf0e940d0, 2025-05-08)"
   xmlns:inkscape="http://www.inkscape.org/namespaces/inkscape"
   xmlns:sodipodi="http://sodipodi.sourceforge.net/DTD/sodipodi-0.dtd"
   xmlns:xlink="http://www.w3.org/1999/xlink"
   xmlns="http://www.w3.org/2000/svg"
   xmlns:svg="http://www.w3.org/2000/svg">
  <sodipodi:namedview
     id="namedview7"
     pagecolor="#ffffff"
     bordercolor="#999999"
     borderopacity="1"
     inkscape:showpageshadow="2"
     inkscape:pageopacity="0"
     inkscape:pagecheckerboard="0"
     inkscape:deskcolor="#d1d1d1"
     inkscape:zoom="17.67767"
     inkscape:cx="6.5619509"
     inkscape:cy="14.651253"
     inkscape:window-width="1920"
     inkscape:window-height="1008"
     inkscape:window-x="0"
     inkscape:window-y="0"
     inkscape:window-maximized="1"
     inkscape:current-layer="g7" />
  <defs
     id="defs4">
    <linearGradient
       id="a"
       y1="392.36"
       y2="365.36"
       x2="0"
       gradientUnits="userSpaceOnUse"
       gradientTransform="translate(309.57 152.44)">
      <stop
         stop-color="#ffffff"
         stop-opacity="0"
         id="stop1" />
      <stop
         offset="1"
         stop-color="#ffffff"
         stop-opacity=".2"
         id="stop2" />
    </linearGradient>
    <linearGradient
       id="b"
       y1="17"
       y2="24"
       x1="47"
       x2="54"
       gradientUnits="userSpaceOnUse"
       gradientTransform="translate(357.57 507.8)">
      <stop
         stop-color="#060606"
         id="stop3" />
      <stop
         offset="1"
         stop-opacity="0"
         id="stop4" />
    </linearGradient>
    <path
       id="c"
       d="m389.57 545.8v-28h15l7 7v21h-14z" />
  </defs>
  <g
     transform="translate(-384.57-515.8)"
     id="g7">
    <g
       color-rendering="auto"
       color-interpolation-filters="linearRGB"
       shape-rendering="auto"
       image-rendering="auto"
       text-rendering="auto"
       color-interpolation="sRGB"
       color="#000000"
       id="g6">
      <use
         fill="#2cbd2c"
         xlink:href="#c"
         id="use4"
         style="fill:#e25293;fill-opacity:1" />
      <g
         transform="scale(1-1)"
         id="g5">
        <rect
           opacity=".5"
           x="389.57"
           y="-518.8"
           width="15"
           fill="#ffffff"
           height="1"
           id="rect4" />
        <rect
           opacity=".25"
           x="389.57"
           y="-545.8"
           width="22"
           height="1"
           id="rect5" />
      </g>
      <path
         opacity=".5"
         fill="#ffffff"
         fill-rule="evenodd"
         d="m411.57 524.8l-7-7v7z"
         id="path5" />
    </g>
    <path
       opacity=".1"
       fill="url(#b)"
       fill-rule="evenodd"
       d="m404.57 524.8l7 7v-7z"
       id="path6" />
    <path
       opacity="0.75"
       fill="#ffffff"
       d="m 397.57,526.8 v 8.281 c -0.295,-0.171 -0.635,-0.281 -1,-0.281 -1.105,0 -2,0.895 -2,2 0,1.105 0.895,2 2,2 1.105,0 2,-0.895 2,-2 v -7 h 7 v 4.281 c -0.295,-0.171 -0.635,-0.281 -1,-0.281 -1.105,0 -2,0.895 -2,2 0,1.105 0.895,2 2,2 1.105,0 2,-0.895 2,-2 v -9 z m 1,1 h 7 v 1 h -7 z"
       id="path3" />
    <use
       fill="url(#a)"
       xlink:href="#c"
       id="use7" />
  </g>
</svg>
