<svg id="svg1" version="1.1" viewBox="0 0 16 16" xmlns="http://www.w3.org/2000/svg">
    <defs id="defs3051">
        <style id="current-color-scheme" type="text/css">.ColorScheme-Text {
        color:#232629;
      }</style>
    </defs>
    <path id="path1" class="ColorScheme-Text" d="m8 2c-2.2091356 8.2e-6 -3.9999918 1.7908644-4 4 0.00157 0.4763707 0.088214 0.9486316 0.2558594 1.3945312 0.121335 0.3353404 0.3660234 0.7066419 0.5195312 0.9628907l3.2246094 5.6425781 3.224609-5.640625c0.25321-0.3154097 0.36294-0.649221 0.521485-0.9648438 0.166979-0.4460217 0.252964-0.9182787 0.253906-1.3945312-8e-6 -2.2091356-1.790864-3.9999918-4-4zm0 1c0.9153025 1.55e-5 1.7805248 0.4178824 2.349609 1.1347656 0.124619 0.1567279 0.233233 0.3255385 0.324219 0.5039063 0.181853 0.3576703 0.290108 0.7481869 0.31836 1.1484375 0.0051 0.070849 0.007712 0.141857 0.007812 0.2128906-2.35e-4 0.3006561-0.04566 0.5995687-0.134766 0.8867188-0.0494 0.155845-0.111455 0.3073913-0.185546 0.453125-0.008301 0.018314-0.016741 0.0365445-0.025391 0.0546874-0.517946 0.9865593-1.540036 1.60477-2.654297 1.6054688-1.114261-6.989e-4 -2.1363398-0.6189099-2.6542969-1.6054688-0.04448-0.0846099-0.0848907-0.1712973-0.1210937-0.2597656l-0.0058594-0.0136718c-0.0330193-0.0826393-0.0623452-0.1667068-0.0878906-0.2519532-0.0039786-0.0116945-0.0078849-0.0234135-0.0117188-0.0351562-0.02222-0.0799115-0.0411165-0.1607101-0.0566406-0.2421875-0.0040532-0.0168929-0.0079596-0.0338206-0.0117188-0.0507813-0.0153308-0.0840959-0.0270602-0.1688086-0.0351562-0.2539062-0.001405-0.0143134-0.0027071-0.0286367-0.0039062-0.0429688-0.0072213-0.0811872-0.0111307-0.162635-0.0117188-0.2441406 2.342e-4 -0.0998073 0.005449-0.1995407 0.015625-0.2988281 0.0806089-0.8067343 0.4843071-1.5464953 1.1191406-2.0507813 0.156728-0.1246186 0.3255385-0.2332331 0.5039063-0.3242187 0.4217056-0.2145544 0.8881799-0.3263208 1.3613281-0.3261719z" fill="currentColor" opacity=".5"/>
</svg>
