<svg id="svg12" version="1" viewBox="0 0 48 48" xmlns="http://www.w3.org/2000/svg" xmlns:xlink="http://www.w3.org/1999/xlink">
    <defs id="defs16">
        <linearGradient id="a" x2="0" y1="392.35999" y2="365.35999" gradientTransform="translate(309.57,152.44)" gradientUnits="userSpaceOnUse">
            <stop id="stop1" stop-color="#fff" stop-opacity="0" offset="0"/>
            <stop id="stop2" stop-color="#fff" stop-opacity=".2" offset="1"/>
        </linearGradient>
        <linearGradient id="b" x1="47" x2="54" y1="17" y2="24" gradientTransform="translate(357.57,507.8)" gradientUnits="userSpaceOnUse">
            <stop id="stop5" stop-color="#060606" offset="0"/>
            <stop id="stop6" stop-opacity="0" offset="1"/>
        </linearGradient>
        <linearGradient id="b-4" x1="398.57001" x2="416.57001" y1="513.79999" y2="531.79999" gradientTransform="translate(-390.166,-500.8)" gradientUnits="userSpaceOnUse">
            <stop id="stop3-3" stop-color="#292c2f" offset="0"/>
            <stop id="stop4-0" stop-opacity="0" offset="1"/>
        </linearGradient>
        <linearGradient id="c" x2="0" y1="543.79999" y2="503.79999" gradientTransform="matrix(1.125,0,0,1,-431.64001,-497.79998)" gradientUnits="userSpaceOnUse">
            <stop id="stop1-7" stop-color="#c6cdd1" offset="0"/>
            <stop id="stop2-8" stop-color="#e0e5e7" offset="1"/>
        </linearGradient>
        <linearGradient id="linearGradient8" x1="23.75733" x2="37.218697" y1="8.7573605" y2="22.218727" gradientUnits="userSpaceOnUse">
            <stop id="stop7" stop-color="#29c166" offset="0"/>
            <stop id="stop8" stop-color="#29af64" offset="1"/>
        </linearGradient>
    </defs>
    <g id="g7" transform="translate(-385.57001,-514.79999)">
        <g id="g6" color="#000000" color-rendering="auto" image-rendering="auto" shape-rendering="auto" text-rendering="auto">
            <path id="use4" d="m389.57 545.8v-28h15l7 7v21h-14z" fill="#eee"/>
            <g id="g5" transform="scale(1,-1)">
                <rect id="rect4" x="389.57001" y="-518.79999" width="15" height="1" fill="#fff" opacity=".6"/>
                <rect id="rect5" x="389.57001" y="-545.79999" width="22" height="1" opacity=".15"/>
            </g>
            <path id="path5" d="m411.57 524.8-7-7v7z" fill-rule="evenodd" opacity=".5"/>
            <path id="path6" d="m394.57 537.8v-1h6v1zm0-2v-1h8.00001v1zm0-3v-1h8v1zm0-2v-1h12v1zm0-2v-1h12v1z" opacity=".6"/>
        </g>
        <path id="use6" d="m389.57 545.8v-28h15l7 7v21h-14z" fill="url(#a)"/>
        <path id="path7" d="m404.57 524.8 7 7v-7z" fill="url(#b)" fill-rule="evenodd" opacity=".1"/>
    </g>
    <g id="g1" transform="matrix(.66666667 0 0 .66666667 14.666667 14.666667)">
        <path id="path4" d="m8 8h33l3 3v33h-36z" fill="url(#c)"/>
        <rect id="rect4-8" transform="rotate(-90)" x="-44" y="8" width="1.5" height="36" fill="#737b81" stroke-opacity=".55" stroke-width="3.2533"/>
        <rect id="rect5-8" transform="rotate(-90)" x="-41" y="39.5" width="4.5" height="3" fill="#4c5154" stroke-width=".106066"/>
        <path id="path5-4" d="m38 8-24 12 23 24h7v-30z" fill="url(#b-4)" fill-rule="evenodd" opacity=".2"/>
        <g id="g6-3" transform="translate(4,2)">
            <rect id="rect6" x="10" y="6" width="24" height="12" fill="#4c5154"/>
            <path id="path6-1" d="m14.499999 6v12h19.500001v-12zm12 1.4999995h4.500001v8.9999995h-4.500001z" fill="#eef1f2"/>
        </g>
        <rect id="rect7" transform="rotate(-90)" x="-41" y="14" width="13.5" height="21" fill="#abb9be" stroke-opacity=".55" stroke-width="2.8106"/>
        <g id="g12" transform="matrix(0,1.0909091,-1.0833333,0,53.749999,-60.113638)" stroke-width=".1">
            <rect id="rect8" transform="rotate(-90)" x="-36" y="81" width="18" height="11" fill="#fdbc4a"/>
            <g id="g11" fill="#fff">
                <rect id="rect9" transform="rotate(-90)" x="-33.923077" y="86.5" width="8.3076925" height="1.375" stroke-width=".119494"/>
                <rect id="rect10" transform="rotate(-90)" x="-33.923077" y="89.25" width="6.9230771" height="1.375" stroke-width=".125957"/>
                <rect id="rect11" transform="rotate(-90)" x="-33.923077" y="83.75" width="11.076923" height="1.375" stroke-width=".11767"/>
            </g>
        </g>
        <rect id="rect12" x="40.25" y="37.25" width="1.5" height="3" fill="#eef1f2" stroke-width="1.49999"/>
    </g>
    <path id="path1" class="ColorScheme-Text" d="m37.466007 15.557157-3.260987 3.239194-0.205022 0.203649-0.205019-0.203651-3.260988-3.239194 0.700165-0.695485 2.270699 2.255524v-3.72334c0-2.997242-2.395213-5.4101835-5.412621-5.4101835-0.03086 0-0.06156 1.701e-4 -0.0921 5.091e-4l-1.63e-4 -0.9837356c0.03061-2.957e-4 0.061368-4.44e-4 0.092265-4.44e-4 3.566025 0 6.402901 2.8516584 6.402908 6.393852l1e-6 0.484151v0.991352l-1e-6 2.247838 2.270699-2.255524 0.700166 0.695485" color="#232629" fill="url(#linearGradient8)"/>
</svg>
