<?xml version="1.0" encoding="UTF-8" standalone="no"?>
<svg
   width="64"
   viewBox="0 0 64 64"
   height="64"
   version="1.1"
   id="svg7"
   sodipodi:docname="x-osu-beatmap.svg"
   inkscape:version="1.4.2 (ebf0e940d0, 2025-05-08)"
   xmlns:inkscape="http://www.inkscape.org/namespaces/inkscape"
   xmlns:sodipodi="http://sodipodi.sourceforge.net/DTD/sodipodi-0.dtd"
   xmlns:xlink="http://www.w3.org/1999/xlink"
   xmlns="http://www.w3.org/2000/svg"
   xmlns:svg="http://www.w3.org/2000/svg">
  <sodipodi:namedview
     id="namedview7"
     pagecolor="#ffffff"
     bordercolor="#999999"
     borderopacity="1"
     inkscape:showpageshadow="2"
     inkscape:pageopacity="0"
     inkscape:pagecheckerboard="0"
     inkscape:deskcolor="#d1d1d1"
     inkscape:zoom="17.67767"
     inkscape:cx="24.494179"
     inkscape:cy="34.619948"
     inkscape:window-width="1920"
     inkscape:window-height="1008"
     inkscape:window-x="0"
     inkscape:window-y="0"
     inkscape:window-maximized="1"
     inkscape:current-layer="svg7" />
  <defs
     id="defs4">
    <linearGradient
       id="a"
       y1="17"
       x1="40"
       y2="31"
       x2="54"
       gradientUnits="userSpaceOnUse">
      <stop
         stop-color="#383e51"
         id="stop1" />
      <stop
         offset="1"
         stop-color="#655c6f"
         stop-opacity="0"
         id="stop2" />
    </linearGradient>
    <linearGradient
       id="b"
       y1="2.978"
       y2="60.978"
       x2="0"
       gradientUnits="userSpaceOnUse"
       gradientTransform="matrix(1 0 0-1 0 63.978)">
      <stop
         stop-color="#ffffff"
         stop-opacity="0"
         id="stop3" />
      <stop
         offset="1"
         stop-color="#ffffff"
         stop-opacity=".2"
         id="stop4" />
    </linearGradient>
    <path
       id="c"
       d="m10 60.978v-58h30l14 14v44h-14z" />
  </defs>
  <use
     fill="#8542c2"
     xlink:href="#c"
     id="use4"
     style="fill:#e25293;fill-opacity:1" />
  <g
     transform="scale(1-1)"
     id="g5">
    <rect
       width="30"
       x="10"
       opacity=".5"
       y="-4"
       fill="#ffffff"
       height="1"
       id="rect4" />
    <rect
       width="44"
       x="10"
       opacity=".25"
       y="-61"
       height="1"
       id="rect5" />
  </g>
  <g
     fill-rule="evenodd"
     id="g6">
    <path
       opacity=".5"
       fill="#ffffff"
       d="m54 17l-14-14v14z"
       id="path5" />
    <path
       opacity=".2"
       fill="url(#a)"
       d="m40 17l14 14v-14z"
       id="path6" />
  </g>
  <use
     fill="url(#b)"
     xlink:href="#c"
     id="use7" />
  <path
     d="m 27,22.005999 v 16.047812 c -0.635,-0.647912 -1.517,-1.052857 -2.5,-1.052857 -1.939,0 -3.5,1.560788 -3.5,3.499523 C 21,42.439213 22.561,44 24.5,44 c 1.905,0 3.437,-1.508794 3.49,-3.399536 H 28 V 27.002318 h 14 v 8.048902 c -0.635,-0.647911 -1.517,-1.052856 -2.5,-1.052856 -1.939,0 -3.5,1.560787 -3.5,3.499523 0,1.938735 1.561,3.499522 3.5,3.499522 1.939,0 3.5,-1.560787 3.5,-3.499522 V 22 H 28 Z m 1,1.999727 h 14 v 1.999728 H 28 Z"
     opacity="0.75"
     stroke-width="1.99986"
     id="path3"
     style="stroke-width:2;stroke-dasharray:none;fill:#ffffff;fill-opacity:1" />
</svg>
