<?xml version="1.0" encoding="UTF-8" standalone="no"?>
<svg
   viewBox="0 0 22 22"
   version="1.1"
   id="svg1"
   sodipodi:docname="keepassxc-symbolic.svg"
   inkscape:version="1.4.2 (ebf0e940d0, 2025-05-08)"
   xmlns:inkscape="http://www.inkscape.org/namespaces/inkscape"
   xmlns:sodipodi="http://sodipodi.sourceforge.net/DTD/sodipodi-0.dtd"
   xmlns="http://www.w3.org/2000/svg"
   xmlns:svg="http://www.w3.org/2000/svg">
  <sodipodi:namedview
     id="namedview1"
     pagecolor="#ffffff"
     bordercolor="#999999"
     borderopacity="1"
     inkscape:showpageshadow="2"
     inkscape:pageopacity="0"
     inkscape:pagecheckerboard="0"
     inkscape:deskcolor="#d1d1d1"
     showgrid="true"
     inkscape:zoom="52.840161"
     inkscape:cx="13.389437"
     inkscape:cy="9.3300245"
     inkscape:window-width="1920"
     inkscape:window-height="1008"
     inkscape:window-x="0"
     inkscape:window-y="0"
     inkscape:window-maximized="1"
     inkscape:current-layer="svg1">
    <inkscape:grid
       id="grid1"
       units="px"
       originx="0"
       originy="0"
       spacingx="1"
       spacingy="1"
       empcolor="#0099e5"
       empopacity="0.30196078"
       color="#0099e5"
       opacity="0.14902"
       empspacing="5"
       enabled="true"
       visible="true" />
  </sodipodi:namedview>
  <defs
     id="defs3051">
    <style
       type="text/css"
       id="current-color-scheme">
      .ColorScheme-Text {
        color:#232629;
      }
      </style>
  </defs>
  <path
     style="fill:currentColor;fill-opacity:1;stroke:none"
     d="m 11,3 c -4.431998,0 -8,3.568002 -8,8 0,4.431998 3.568002,8 8,8 4.431998,0 8,-3.568002 8,-8 0,-4.431998 -3.568002,-8 -8,-8 m 0,1 c 3.877999,0 7,3.122001 7,7 0,3.877999 -3.122001,7 -7,7 C 7.122001,18 4,14.877999 4,11 4,7.122001 7.122001,4 11,4"
     class="ColorScheme-Text"
     id="path1"
     sodipodi:nodetypes="csssccsssc" />
  <path
     style="display:inline;fill:#232629;fill-opacity:1;fill-rule:evenodd;stroke-width:2"
     d="m 8,8 c 0,-1.8 1.5,-3 3,-3 1.9,0 3,1.6 3,3 0,1.9 -1.5,2.75 -2,2.9 V 16 l -1,1 -1,-1 V 15 L 10.5,14.5 10,14 10.5,13.5 10,13 10.5,12.5 10,12 V 10.9 C 9.4,10.6 8,9.75 8,8 Z m 4,-1 c 0,0.675 -0.5,1 -1,1 -0.5,0 -1,-0.325 -1,-1 0,-0.75 0.5,-1 1,-1 0.5,0 1,0.325 1,1 z"
     id="path3"
     sodipodi:nodetypes="cssccccccccccccccscsc" />
</svg>
